<?xml version="1.0" encoding="UTF-8" standalone="no"?>
<!-- Created with Inkscape (http://www.inkscape.org/) -->

<svg
   width="210mm"
   height="297mm"
   viewBox="0 0 210 297"
   version="1.1"
   id="svg1"
   xmlns="http://www.w3.org/2000/svg"
   xmlns:svg="http://www.w3.org/2000/svg">
  <defs
     id="defs1" />
  <g
     id="branch">
    <use
       id="leaf_1"
       href="#leaf_template"
       transform="rotate(-109.8007,111.19577,194.13138)" />
    <use
       id="leaf_2"
       href="#leaf_template"
       transform="rotate(-134.97304,129.85163,119.17967)" />
    <use
       id="leaf_3"
       href="#leaf_template"
       transform="rotate(-52.51671,39.967835,83.135757)" />
    <use
       id="leaf_4"
       href="#leaf_template"
       transform="rotate(-33.25549,64.766593,248.60594)" />
    <use
       id="leaf_5"
       href="#leaf_template"
       transform="rotate(-26.897421,-45.339079,277.56896)" />
    <g
       id="leaf_template"
       style="fill:none;stroke:#002e11;stroke-width:0.79375;stroke-linecap:round"
       transform="matrix(0.48335786,-0.32281511,0.31929694,0.48868374,66.558029,153.25355)">
      <path
         d="m 86.1,81.4 c 56.1,-18.4 68.7,45.2 68.7,45.2 0,0 -69.8,8 -68.7,-45.2 z"
         id="base"
         style="fill:#1e711d" />
      <g
         id="inner_lines">
        <path
           d="m 108.1,85.3 -13.7,1.5 3.1,11.8"
           id="path19" />
        <path
           d="m 86.1,81.6 62.1,40.9"
           id="path20" />
        <path
           d="m 126.5,93.8 -17.5,2.8 3.5,13.8"
           id="path21" />
        <path
           d="m 138.5,107.3 h -13.6 l 3.6,10.5"
           id="path22" />
        <path
           d="m 146.2,117.7 -6.3,-0.4 2.2,5.5"
           id="path23" />
      </g>
    </g>
  </g>
  <path
     style="fill:none;fill-opacity:0;stroke:#002e11;stroke-width:0.79375;stroke-linecap:round;stroke-linejoin:round;paint-order:fill markers stroke;stroke-dasharray:none"
     d="m 19.896467,17.725944 c 0,0 11.214373,-10.490865 36.537149,-1.80877 25.322778,8.682095 36.537151,5.788063 47.751524,-3.61754 11.21437,-9.4056025 36.53715,-9.7673563 42.32521,-1.085261 5.78806,8.682094 27.85506,10.12911 38.70768,5.426309 10.85261,-4.702801 13.02314,-4.341048 16.27892,-0.723508 3.25579,3.61754 7.23508,25.68453 -1.08526,36.175394 -8.32034,10.490867 -9.04385,42.325213 -5.06455,64.030452"
     id="path1" />
</svg>
