<?xml version="1.0" encoding="UTF-8"?>
<!-- Created with Inkscape (http://www.inkscape.org/) -->
<svg width="186" height="18.5" version="1.1" viewBox="0 0 186 18.5" xml:space="preserve"
  xmlns="http://www.w3.org/2000/svg">
  <g transform="translate(-9.7 -9.03)" fill="none" stroke-linecap="round">
    <def>
      <use id="dl" fill="#4b831d" href="#leaf_shape" name="dark_leaf" />
      <path id="leaf_shape" d="m26 43c-6-5 0.3-10 0.3-10s6 7-0.3 10z" />
    </def>
    <path id="branch" d="m10 20c16-4 28-9 49-1 22 5 24 5 41 0.8 16-5 32-5 45 0.5 15 6 41.6 0.2 50.1-3.83"
      stroke="#835d41" stroke-width=".6" />
    <use transform="rotate(54,46,22)" href="#dl" />
    <use transform="rotate(64,64,65)" href="#dl" />
    <use transform="rotate(123,36,30)" href="#dl" />
    <use transform="rotate(53,64,49)" href="#dl" />
    <use transform="rotate(123,47,38)" href="#dl" />
    <use transform="rotate(116,60,50)" href="#dl" />
    <use transform="rotate(45,88,116)" href="#dl" />
    <use transform="rotate(123,75,53)" href="#dl" />
    <use transform="rotate(62,97,109)" href="#dl" />
    <use transform="rotate(114,89,66)" href="#dl" />
    <use transform="rotate(72,103,118)" href="#dl" />
    <use transform="matrix(-.237 .961 -.826 -.276 209 9.33)" href="#dl" />
    <use transform="matrix(.481 .589 -.601 .472 194 -15)" href="#dl" />
    <use transform="matrix(-.216 .606 -.615 -.225 221 13)" href="#dl" />
  </g>
</svg>