<?xml version="1.0" encoding="UTF-8"?>
<!-- Created with Inkscape (http://www.inkscape.org/) -->
<svg width="38.1mm" height="57.6mm" fill="none" stroke-linecap="round" stroke-linejoin="round" stroke-width="1.5"
  version="2" viewBox="0 0 38.1 57.6" xml:space="preserve" xmlns="http://www.w3.org/2000/svg">
  <defs>
    <marker id="arr_1" markerHeight="6" markerWidth="5" orient="auto-start-reverse" viewBox="-3 -4 3 8">
      <path transform="rotate(180 .125 0)" d="m3-3-3 3 3 3" stroke="#fd6347" />
    </marker>
    <marker id="arr_2" markerHeight="6" markerWidth="5" orient="auto-start-reverse" viewBox="-3 -4 3 8">
      <path transform="rotate(180 .125 0)" d="m3-3-3 3 3 3" stroke="#1e90ff" />
    </marker>
    <marker id="arr_3" markerHeight="6" markerWidth="5" orient="auto-start-reverse" viewBox="-3 -4 3 8">
      <path transform="rotate(180 .125 0)" d="m3-3-3 3 3 3" stroke="#3caf6f" />
    </marker>
    <marker id="arr_4" markerHeight="6" markerWidth="5" orient="auto-start-reverse" viewBox="-3 -4 3 8">
      <path transform="rotate(180 .125 0)" d="m3-3-3 3 3 3" stroke="#daa520" />
    </marker>
  </defs>
  <path d="m4.22 25.2h7.33v7.26" stroke="#808080" />
  <g transform="translate(-.281 -.215)" stroke="#808080" stroke-dasharray="1.17662, 2.94154">
    <path d="m37.6 56.4-0.146-24.5" />
    <path d="m37.1 56.4h-32.7" />
  </g>
  <path d="m36.8 55.9-32.3-23.6" marker-start="url(#arr_1)" stroke="#fd6347" />
  <path d="m36.7 32.6-32-0.0989" marker-start="url(#arr_2)" stroke="#1e90ff" />
  <path d="m4.22 1.12v34" marker-start="url(#arr_3)" stroke="#3caf6f" />
  <path d="m4.22 55.6v-23.1" marker-start="url(#arr_4)" stroke="#daa520" />
</svg>