<?xml version="1.0" encoding="UTF-8"?>
<svg id="top-leaves" width="451" height="305" pointer-events="none" style="height:auto;position:absolute;right:0;transform:translateY(-6%) translateX(6%);width:100%" version="1.1" viewBox="0 0 119 80.8" xml:space="preserve" xmlns="http://www.w3.org/2000/svg">
  <g transform="matrix(1.08 0 0 1.08 .143 -35.5)">
    <path d="m-0.00191 37.7s4.14-3.17 13-0.17c2.26 0.766 13.8-1.09 17-2.07 8.65-2.61 24.1 8.31 32.8 1.24 4.95-4.01 25.6 4.31 29.3 2.44 3.91-1.98 21.9-6.82 10.3 7.44-3.37 4.17 7.59 6.22 0.53 21.9-1.95 4.34 6.58 12 0.663 17.8-7.01 6.81 5.94 12.4-0.0479 19.7" fill="none" stroke="#855E42" stroke-linecap="round" stroke-width=".265px"/>
    <g fill="#43751a" stop-color="#000000" stroke-width=".247" style="paint-order:stroke fill markers">
      <path d="m8.76 40c0.263-0.86 0.567-1.96 0.229-2.84-0.339-0.883-0.793-0.74-1.71-0.969-0.53 0.783-0.938 0.971-0.6 1.85 0.338 0.883 1.37 1.48 2.08 1.96z"/><path d="m18.9 40.3c-0.229-0.87-0.549-1.97-1.3-2.54-0.753-0.573-1.06-0.212-1.96 0.0758-0.0384 0.945-0.287 1.32 0.465 1.89 0.752 0.573 1.94 0.542 2.8 0.57z"/><path d="m23.4 34.3c-0.892 0.115-2.02 0.291-2.69 0.964-0.665 0.673-0.347 1.03-0.178 1.96 0.932 0.16 1.27 0.455 1.94-0.217 0.665-0.672 0.788-1.85 0.926-2.7z"/><path d="m57.5 36c-0.878 0.195-1.99 0.472-2.59 1.2-0.601 0.73-0.253 1.05-4.62e-4 1.97 0.943 0.0751 1.31 0.338 1.91-0.391 0.602-0.73 0.617-1.92 0.679-2.78z"/><path d="m50.2 40.8c-0.149-0.887-0.369-2.01-1.07-2.65-0.698-0.638-1.04-0.307-1.96-0.102-0.124 0.938-0.405 1.29 0.292 1.93 0.698 0.639 1.88 0.715 2.74 0.821z"/><path d="m66.1 38.5c-0.512-0.739-1.19-1.66-2.09-1.94-0.903-0.281-1.07 0.164-1.82 0.742 0.286 0.901 0.18 1.34 1.08 1.62 0.903 0.282 2.01-0.153 2.83-0.42z"/><path d="m87.8 42c0.0222-0.899 0.0193-2.04-0.544-2.8-0.564-0.759-0.963-0.5-1.91-0.473-0.3 0.897-0.643 1.19-0.0798 1.95 0.563 0.76 1.71 1.06 2.53 1.33z"/><path d="m101 65.5c0.828 0.351 1.89 0.769 2.8 0.525 0.914-0.245 0.819-0.711 1.14-1.6-0.724-0.609-0.867-1.03-1.78-0.791-0.914 0.244-1.62 1.2-2.17 1.87z"/><path d="m106 72.5c-0.41-0.8-0.958-1.8-1.82-2.2-0.858-0.398-1.08 0.0212-1.9 0.496 0.165 0.931 3e-3 1.35 0.861 1.75 0.858 0.398 2.01 0.112 2.86-0.0445z"/><path d="m109 85.2c-0.0682-0.897-0.186-2.03-0.823-2.73-0.637-0.699-1.01-0.4-1.95-0.279-0.208 0.923-0.52 1.25 0.116 1.95 0.637 0.699 1.81 0.883 2.65 1.07z"/><path d="m105 92.4c-0.19-0.879-0.462-1.99-1.19-2.59-0.727-0.605-1.05-0.259-1.97-0.011-0.0801 0.942-0.345 1.31 0.381 1.91 0.726 0.606 1.92 0.627 2.77 0.694z"/><path d="m108 99.6c-0.525-0.73-1.22-1.64-2.13-1.9-0.908-0.265-1.07 0.183-1.81 0.775 0.303 0.896 0.205 1.33 1.11 1.6 0.908 0.265 2.01-0.19 2.82-0.472z"/><path d="m106 107c0.189-0.651 0.403-1.48 0.0913-2.13-0.312-0.649-0.685-0.528-1.46-0.67-0.413 0.602-0.746 0.755-0.434 1.4 0.312 0.649 1.19 1.06 1.8 1.4z" stop-color="#000000" stroke-width=".195" style="paint-order:stroke fill markers"/><path d="m102 78.8c0.847-0.302 1.91-0.715 2.42-1.51 0.506-0.799 0.121-1.08-0.243-1.95-0.945 0.0424-1.34-0.173-1.85 0.625-0.507 0.799-0.374 1.98-0.329 2.84z"/><path d="m100 85c0.567 0.698 1.31 1.56 2.23 1.78 0.922 0.211 1.06-0.245 1.76-0.879-0.355-0.877-0.283-1.32-1.2-1.53-0.922-0.212-1.99 0.307-2.79 0.636z"/><path d="m99.6 97.1c0.888-0.144 2.01-0.357 2.65-1.05 0.643-0.694 0.314-1.04 0.114-1.96-0.937-0.129-1.29-0.413-1.93 0.28-0.643 0.694-0.727 1.88-0.838 2.73z"/><path d="m102 104c0.799 0.179 1.82 0.379 2.6 0.0114 0.778-0.368 0.617-0.771 0.761-1.62-0.748-0.427-0.946-0.784-1.72-0.417-0.778 0.368-1.25 1.34-1.63 2.02z" stop-color="#000000" stroke-width=".225" style="paint-order:stroke fill markers"/><path d="m109 59.7c-0.198-0.877-0.479-1.98-1.21-2.58-0.732-0.599-1.06-0.25-1.97 0.0061-0.0719 0.943-0.334 1.31 0.397 1.91 0.732 0.599 1.92 0.611 2.78 0.67z"/><path d="m101 55.1c0.814-0.383 1.83-0.897 2.26-1.74 0.426-0.844 0.0153-1.08-0.432-1.92-0.936 0.134-1.35-0.0426-1.78 0.801-0.427 0.844-0.18 2.01-0.0518 2.86z"/><path d="m105 49.3c0.0222-0.899 0.0193-2.04-0.544-2.8-0.564-0.759-0.963-0.5-1.91-0.473-0.3 0.897-0.643 1.19-0.0798 1.95 0.563 0.76 1.71 1.06 2.53 1.33z"/><path d="m102 43c0.843 0.313 1.92 0.681 2.83 0.395 0.901-0.287 0.785-0.748 1.07-1.65-0.751-0.575-0.914-0.993-1.82-0.708-0.901 0.286-1.56 1.28-2.08 1.96z"/><path d="m110 38.9c-0.575-0.692-1.33-1.55-2.25-1.75-0.924-0.201-1.05 0.257-1.75 0.898 0.364 0.873 0.297 1.32 1.22 1.52 0.924 0.202 1.99-0.328 2.78-0.666z"/><path d="m101 39.8c-0.246-0.865-0.588-1.95-1.35-2.51-0.764-0.557-1.07-0.191-1.96 0.115-0.0194 0.946-0.261 1.32 0.503 1.88 0.764 0.558 1.95 0.503 2.81 0.514z"/><path d="m94.2 34.6c-0.663 0.607-1.48 1.4-1.64 2.33-0.156 0.933 0.307 1.04 0.982 1.7 0.854-0.406 1.3-0.36 1.46-1.29 0.157-0.933-0.424-1.97-0.799-2.74z"/><path d="m72.1 32.9c-0.895 0.0904-2.03 0.236-2.71 0.89-0.683 0.654-0.375 1.02-0.231 1.95 0.927 0.185 1.26 0.489 1.94-0.164 0.683-0.654 0.838-1.83 1-2.68z"/><path d="m75.1 39.2c-0.0705-0.896-0.191-2.03-0.83-2.73-0.639-0.697-1.01-0.398-1.95-0.274-0.206 0.923-0.517 1.25 0.121 1.95 0.639 0.698 1.81 0.878 2.65 1.06z"/><path d="m83.9 36c-0.853-0.284-1.95-0.615-2.84-0.299-0.891 0.317-0.759 0.774-1.01 1.69 0.77 0.549 0.947 0.962 1.84 0.646 0.891-0.317 1.52-1.33 2.01-2.03z"/><path d="m44.2 34.5c-0.88-0.183-2-0.386-2.85 0.0313-0.848 0.418-0.665 0.857-0.809 1.79 0.828 0.456 1.05 0.846 1.9 0.429 0.849-0.418 1.35-1.49 1.76-2.25z"/><path d="m31.6 32.8c-0.892 0.115-2.02 0.291-2.69 0.964-0.665 0.673-0.347 1.03-0.178 1.96 0.932 0.16 1.27 0.455 1.94-0.217 0.665-0.672 0.788-1.85 0.926-2.7z"/><path d="m28.5 39c-0.165-0.884-0.405-2-1.11-2.63-0.709-0.626-1.05-0.289-1.96-0.0666-0.107 0.94-0.382 1.3 0.327 1.92 0.709 0.626 1.9 0.681 2.75 0.772z"/><path d="m38 37.7c-0.261-0.86-0.622-1.94-1.4-2.49-0.774-0.544-1.07-0.172-1.96 0.149-3e-3 0.946-0.238 1.33 0.536 1.87 0.773 0.544 1.96 0.469 2.82 0.465z"/><path d="m15 35.3c-0.878-0.195-2-0.412-2.85-0.0061-0.854 0.407-0.676 0.848-0.832 1.78 0.822 0.467 1.04 0.86 1.9 0.454 0.854-0.406 1.37-1.48 1.79-2.23z"/>
    </g>
  </g>
</svg>
