<?xml version="1.0" encoding="UTF-8"?>
<!-- Created with Inkscape (http://www.inkscape.org/) -->
<svg width="80mm" height="80mm" fill="none" stroke-linecap="round" stroke-linejoin="round" viewBox="0 0 80 80" xml:space="preserve" xmlns="http://www.w3.org/2000/svg">
  <defs>
    <marker id="arr_1" overflow="visible" markerHeight="6" markerWidth="5" orient="auto-start-reverse" viewBox="0 0 5 6">
      <path d="M -3 -2 0 0 -3 2" stroke="#fd6347" />
    </marker>
    <marker id="arr_2" overflow="visible" markerHeight="6" markerWidth="5" orient="auto-start-reverse" viewBox="0 0 5 6">
      <path d="M -3 -2 0 0 -3 2" stroke="#1e90ff" />
    </marker>
    <marker id="arr_3" overflow="visible" markerHeight="6" markerWidth="5" orient="auto-start-reverse" viewBox="0 0 5 6">
      <path d="M -3 -2 0 0 -3 2" stroke="#3caf6f" />
    </marker>
    <marker id="arr_4" overflow="visible" markerHeight="6" markerWidth="5" orient="auto-start-reverse" viewBox="0 0 5 6">
      <path d="M -3 -2 0 0 -3 2" stroke="#daa520" />
    </marker>
  </defs>
  <path d="m31.5 40.4 3.93-3.59 3.38 4.09" stroke="#808080" />
  <g transform="matrix(.536 -.49 .466 .564 17.2 28.3)" stroke="#808080" stroke-dasharray="1.17662, 2.94154">
    <path d="m37.6 56.4-0.146-24.5" />
    <path d="m37.1 56.4h-32.7" />
  </g>
  <g>
    <path d="m63.2 41.8-28.3 2.52" marker-start="url(#arr_1)" stroke="#fd6347" />
    <path d="m52.3 28.6-17.2 15.6" marker-start="url(#arr_2)" stroke="#1e90ff" />
    <path d="m20.2 26.8 15.8 19.2" marker-start="url(#arr_3)" stroke="#3caf6f" />
    <path d="m45.6 57.5-10.8-13" marker-start="url(#arr_4)" stroke="#daa520" />
  </g>
  <g font-family="Calibri" font-size="7.76px" text-anchor="middle">
    <text x="68" y="43" fill="#fd6347">A</text>
    <text x="56" y="27" fill="#1e90ff">D</text>
    <text x="43" y="65" fill="#daa520">C</text>
    <text x="16" y="27" fill="#3caf6f">B</text>
  </g>
</svg>